<svg width="2167" height="855" viewBox="0 0 2167 855" fill="none" xmlns="http://www.w3.org/2000/svg">
<g filter="url(#filter0_d_36_10)">
<path d="M223.65 435.15H98.55L77.85 495H11.7L124.65 180.45H198L310.95 495H244.35L223.65 435.15ZM206.55 384.75L161.1 253.35L115.65 384.75H206.55ZM588.519 245.7V495H525.069V463.5C516.969 474.3 506.319 482.85 493.119 489.15C480.219 495.15 466.119 498.15 450.819 498.15C431.319 498.15 414.069 494.1 399.069 486C384.069 477.6 372.219 465.45 363.519 449.55C355.119 433.35 350.919 414.15 350.919 391.95V245.7H413.919V382.95C413.919 402.75 418.869 418.05 428.769 428.85C438.669 439.35 452.169 444.6 469.269 444.6C486.669 444.6 500.319 439.35 510.219 428.85C520.119 418.05 525.069 402.75 525.069 382.95V245.7H588.519ZM634.479 369.45C634.479 344.25 639.429 321.9 649.329 302.4C659.529 282.9 673.329 267.9 690.729 257.4C708.129 246.9 727.479 241.65 748.779 241.65C764.979 241.65 780.429 245.25 795.129 252.45C809.829 259.35 821.529 268.65 830.229 280.35V162H894.129V495H830.229V458.1C822.429 470.4 811.479 480.3 797.379 487.8C783.279 495.3 766.929 499.05 748.329 499.05C727.329 499.05 708.129 493.65 690.729 482.85C673.329 472.05 659.529 456.9 649.329 437.4C639.429 417.6 634.479 394.95 634.479 369.45ZM830.679 370.35C830.679 355.05 827.679 342 821.679 331.2C815.679 320.1 807.579 311.7 797.379 306C787.179 300 776.229 297 764.529 297C752.829 297 742.029 299.85 732.129 305.55C722.229 311.25 714.129 319.65 707.829 330.75C701.829 341.55 698.829 354.45 698.829 369.45C698.829 384.45 701.829 397.65 707.829 409.05C714.129 420.15 722.229 428.7 732.129 434.7C742.329 440.7 753.129 443.7 764.529 443.7C776.229 443.7 787.179 440.85 797.379 435.15C807.579 429.15 815.679 420.75 821.679 409.95C827.679 398.85 830.679 385.65 830.679 370.35ZM987.609 216C976.509 216 967.209 212.55 959.709 205.65C952.509 198.45 948.909 189.6 948.909 179.1C948.909 168.6 952.509 159.9 959.709 153C967.209 145.8 976.509 142.2 987.609 142.2C998.709 142.2 1007.86 145.8 1015.06 153C1022.56 159.9 1026.31 168.6 1026.31 179.1C1026.31 189.6 1022.56 198.45 1015.06 205.65C1007.86 212.55 998.709 216 987.609 216ZM1018.66 245.7V495H955.659V245.7H1018.66ZM1154.25 297.45V418.05C1154.25 426.45 1156.2 432.6 1160.1 436.5C1164.3 440.1 1171.2 441.9 1180.8 441.9H1210.05V495H1170.45C1117.35 495 1090.8 469.2 1090.8 417.6V297.45H1061.1V245.7H1090.8V184.05H1154.25V245.7H1210.05V297.45H1154.25ZM1515.92 180.9V495H1452.92V361.35H1318.37V495H1255.37V180.9H1318.37V310.05H1452.92V180.9H1515.92ZM1813.28 245.7V495H1749.83V463.5C1741.73 474.3 1731.08 482.85 1717.88 489.15C1704.98 495.15 1690.88 498.15 1675.58 498.15C1656.08 498.15 1638.83 494.1 1623.83 486C1608.83 477.6 1596.98 465.45 1588.28 449.55C1579.88 433.35 1575.68 414.15 1575.68 391.95V245.7H1638.68V382.95C1638.68 402.75 1643.63 418.05 1653.53 428.85C1663.43 439.35 1676.93 444.6 1694.03 444.6C1711.43 444.6 1725.08 439.35 1734.98 428.85C1744.88 418.05 1749.83 402.75 1749.83 382.95V245.7H1813.28ZM1938.43 282.15C1946.53 270.15 1957.63 260.4 1971.73 252.9C1986.13 245.4 2002.48 241.65 2020.78 241.65C2042.08 241.65 2061.28 246.9 2078.38 257.4C2095.78 267.9 2109.43 282.9 2119.33 302.4C2129.53 321.6 2134.63 343.95 2134.63 369.45C2134.63 394.95 2129.53 417.6 2119.33 437.4C2109.43 456.9 2095.78 472.05 2078.38 482.85C2061.28 493.65 2042.08 499.05 2020.78 499.05C2002.18 499.05 1985.83 495.45 1971.73 488.25C1957.93 480.75 1946.83 471.15 1938.43 459.45V495H1875.43V162H1938.43V282.15ZM2070.28 369.45C2070.28 354.45 2067.13 341.55 2060.83 330.75C2054.83 319.65 2046.73 311.25 2036.53 305.55C2026.63 299.85 2015.83 297 2004.13 297C1992.73 297 1981.93 300 1971.73 306C1961.83 311.7 1953.73 320.1 1947.43 331.2C1941.43 342.3 1938.43 355.35 1938.43 370.35C1938.43 385.35 1941.43 398.4 1947.43 409.5C1953.73 420.6 1961.83 429.15 1971.73 435.15C1981.93 440.85 1992.73 443.7 2004.13 443.7C2015.83 443.7 2026.63 440.7 2036.53 434.7C2046.73 428.7 2054.83 420.15 2060.83 409.05C2067.13 397.95 2070.28 384.75 2070.28 369.45Z" fill="#FF0000"/>
<path d="M704.35 683.05C707.05 679.05 710.75 675.8 715.45 673.3C720.25 670.8 725.7 669.55 731.8 669.55C738.9 669.55 745.3 671.3 751 674.8C756.8 678.3 761.35 683.3 764.65 689.8C768.05 696.2 769.75 703.65 769.75 712.15C769.75 720.65 768.05 728.2 764.65 734.8C761.35 741.3 756.8 746.35 751 749.95C745.3 753.55 738.9 755.35 731.8 755.35C725.6 755.35 720.15 754.15 715.45 751.75C710.85 749.25 707.15 746.05 704.35 742.15V754H683.35V643H704.35V683.05ZM748.3 712.15C748.3 707.15 747.25 702.85 745.15 699.25C743.15 695.55 740.45 692.75 737.05 690.85C733.75 688.95 730.15 688 726.25 688C722.45 688 718.85 689 715.45 691C712.15 692.9 709.45 695.7 707.35 699.4C705.35 703.1 704.35 707.45 704.35 712.45C704.35 717.45 705.35 721.8 707.35 725.5C709.45 729.2 712.15 732.05 715.45 734.05C718.85 735.95 722.45 736.9 726.25 736.9C730.15 736.9 733.75 735.9 737.05 733.9C740.45 731.9 743.15 729.05 745.15 725.35C747.25 721.65 748.3 717.25 748.3 712.15ZM864.51 670.9L813.06 793.3H790.71L808.71 751.9L775.41 670.9H798.96L820.41 728.95L842.16 670.9H864.51ZM982.823 649.3V666.25H954.923V754H933.923V666.25H906.023V649.3H982.823ZM1075.39 710.65C1075.39 713.65 1075.19 716.35 1074.79 718.75H1014.04C1014.54 724.75 1016.64 729.45 1020.34 732.85C1024.04 736.25 1028.59 737.95 1033.99 737.95C1041.79 737.95 1047.34 734.6 1050.64 727.9H1073.29C1070.89 735.9 1066.29 742.5 1059.49 747.7C1052.69 752.8 1044.34 755.35 1034.44 755.35C1026.44 755.35 1019.24 753.6 1012.84 750.1C1006.54 746.5 1001.59 741.45 997.995 734.95C994.495 728.45 992.745 720.95 992.745 712.45C992.745 703.85 994.495 696.3 997.995 689.8C1001.49 683.3 1006.39 678.3 1012.69 674.8C1018.99 671.3 1026.24 669.55 1034.44 669.55C1042.34 669.55 1049.39 671.25 1055.59 674.65C1061.89 678.05 1066.74 682.9 1070.14 689.2C1073.64 695.4 1075.39 702.55 1075.39 710.65ZM1053.64 704.65C1053.54 699.25 1051.59 694.95 1047.79 691.75C1043.99 688.45 1039.34 686.8 1033.84 686.8C1028.64 686.8 1024.24 688.4 1020.64 691.6C1017.14 694.7 1014.99 699.05 1014.19 704.65H1053.64ZM1111.72 643V754H1090.72V643H1111.72ZM1181.67 754L1153.47 718.6V754H1132.47V643H1153.47V706.15L1181.37 670.9H1208.67L1172.07 712.6L1208.97 754H1181.67ZM1256.97 755.35C1248.97 755.35 1241.77 753.6 1235.37 750.1C1228.97 746.5 1223.92 741.45 1220.22 734.95C1216.62 728.45 1214.82 720.95 1214.82 712.45C1214.82 703.95 1216.67 696.45 1220.37 689.95C1224.17 683.45 1229.32 678.45 1235.82 674.95C1242.32 671.35 1249.57 669.55 1257.57 669.55C1265.57 669.55 1272.82 671.35 1279.32 674.95C1285.82 678.45 1290.92 683.45 1294.62 689.95C1298.42 696.45 1300.32 703.95 1300.32 712.45C1300.32 720.95 1298.37 728.45 1294.47 734.95C1290.67 741.45 1285.47 746.5 1278.87 750.1C1272.37 753.6 1265.07 755.35 1256.97 755.35ZM1256.97 737.05C1260.77 737.05 1264.32 736.15 1267.62 734.35C1271.02 732.45 1273.72 729.65 1275.72 725.95C1277.72 722.25 1278.72 717.75 1278.72 712.45C1278.72 704.55 1276.62 698.5 1272.42 694.3C1268.32 690 1263.27 687.85 1257.27 687.85C1251.27 687.85 1246.22 690 1242.12 694.3C1238.12 698.5 1236.12 704.55 1236.12 712.45C1236.12 720.35 1238.07 726.45 1241.97 730.75C1245.97 734.95 1250.97 737.05 1256.97 737.05ZM1418.92 669.7C1429.12 669.7 1437.32 672.85 1443.52 679.15C1449.82 685.35 1452.97 694.05 1452.97 705.25V754H1431.97V708.1C1431.97 701.6 1430.32 696.65 1427.02 693.25C1423.72 689.75 1419.22 688 1413.52 688C1407.82 688 1403.27 689.75 1399.87 693.25C1396.57 696.65 1394.92 701.6 1394.92 708.1V754H1373.92V708.1C1373.92 701.6 1372.27 696.65 1368.97 693.25C1365.67 689.75 1361.17 688 1355.47 688C1349.67 688 1345.07 689.75 1341.67 693.25C1338.37 696.65 1336.72 701.6 1336.72 708.1V754H1315.72V670.9H1336.72V680.95C1339.42 677.45 1342.87 674.7 1347.07 672.7C1351.37 670.7 1356.07 669.7 1361.17 669.7C1367.67 669.7 1373.47 671.1 1378.57 673.9C1383.67 676.6 1387.62 680.5 1390.42 685.6C1393.12 680.8 1397.02 676.95 1402.12 674.05C1407.32 671.15 1412.92 669.7 1418.92 669.7Z" fill="white"/>
</g>
<defs>
<filter id="filter0_d_36_10" x="-4" y="0" width="2175" height="863" filterUnits="userSpaceOnUse" color-interpolation-filters="sRGB">
<feFlood flood-opacity="0" result="BackgroundImageFix"/>
<feColorMatrix in="SourceAlpha" type="matrix" values="0 0 0 0 0 0 0 0 0 0 0 0 0 0 0 0 0 0 127 0" result="hardAlpha"/>
<feOffset dy="4"/>
<feGaussianBlur stdDeviation="2"/>
<feComposite in2="hardAlpha" operator="out"/>
<feColorMatrix type="matrix" values="0 0 0 0 0 0 0 0 0 0 0 0 0 0 0 0 0 0 0.25 0"/>
<feBlend mode="normal" in2="BackgroundImageFix" result="effect1_dropShadow_36_10"/>
<feBlend mode="normal" in="SourceGraphic" in2="effect1_dropShadow_36_10" result="shape"/>
</filter>
</defs>
</svg>
