<svg width="6097" height="1436" viewBox="0 0 6097 1436" fill="none" xmlns="http://www.w3.org/2000/svg">
<path d="M2188.65 658.15H2063.55L2042.85 718H1976.7L2089.65 403.45H2163L2275.95 718H2209.35L2188.65 658.15ZM2171.55 607.75L2126.1 476.35L2080.65 607.75H2171.55ZM2553.52 468.7V718H2490.07V686.5C2481.97 697.3 2471.32 705.85 2458.12 712.15C2445.22 718.15 2431.12 721.15 2415.82 721.15C2396.32 721.15 2379.07 717.1 2364.07 709C2349.07 700.6 2337.22 688.45 2328.52 672.55C2320.12 656.35 2315.92 637.15 2315.92 614.95V468.7H2378.92V605.95C2378.92 625.75 2383.87 641.05 2393.77 651.85C2403.67 662.35 2417.17 667.6 2434.27 667.6C2451.67 667.6 2465.32 662.35 2475.22 651.85C2485.12 641.05 2490.07 625.75 2490.07 605.95V468.7H2553.52ZM2599.48 592.45C2599.48 567.25 2604.43 544.9 2614.33 525.4C2624.53 505.9 2638.33 490.9 2655.73 480.4C2673.13 469.9 2692.48 464.65 2713.78 464.65C2729.98 464.65 2745.43 468.25 2760.13 475.45C2774.83 482.35 2786.53 491.65 2795.23 503.35V385H2859.13V718H2795.23V681.1C2787.43 693.4 2776.48 703.3 2762.38 710.8C2748.28 718.3 2731.93 722.05 2713.33 722.05C2692.33 722.05 2673.13 716.65 2655.73 705.85C2638.33 695.05 2624.53 679.9 2614.33 660.4C2604.43 640.6 2599.48 617.95 2599.48 592.45ZM2795.68 593.35C2795.68 578.05 2792.68 565 2786.68 554.2C2780.68 543.1 2772.58 534.7 2762.38 529C2752.18 523 2741.23 520 2729.53 520C2717.83 520 2707.03 522.85 2697.13 528.55C2687.23 534.25 2679.13 542.65 2672.83 553.75C2666.83 564.55 2663.83 577.45 2663.83 592.45C2663.83 607.45 2666.83 620.65 2672.83 632.05C2679.13 643.15 2687.23 651.7 2697.13 657.7C2707.33 663.7 2718.13 666.7 2729.53 666.7C2741.23 666.7 2752.18 663.85 2762.38 658.15C2772.58 652.15 2780.68 643.75 2786.68 632.95C2792.68 621.85 2795.68 608.65 2795.68 593.35ZM2952.61 439C2941.51 439 2932.21 435.55 2924.71 428.65C2917.51 421.45 2913.91 412.6 2913.91 402.1C2913.91 391.6 2917.51 382.9 2924.71 376C2932.21 368.8 2941.51 365.2 2952.61 365.2C2963.71 365.2 2972.86 368.8 2980.06 376C2987.56 382.9 2991.31 391.6 2991.31 402.1C2991.31 412.6 2987.56 421.45 2980.06 428.65C2972.86 435.55 2963.71 439 2952.61 439ZM2983.66 468.7V718H2920.66V468.7H2983.66ZM3119.25 520.45V641.05C3119.25 649.45 3121.2 655.6 3125.1 659.5C3129.3 663.1 3136.2 664.9 3145.8 664.9H3175.05V718H3135.45C3082.35 718 3055.8 692.2 3055.8 640.6V520.45H3026.1V468.7H3055.8V407.05H3119.25V468.7H3175.05V520.45H3119.25ZM3480.92 403.9V718H3417.92V584.35H3283.37V718H3220.37V403.9H3283.37V533.05H3417.92V403.9H3480.92ZM3778.28 468.7V718H3714.83V686.5C3706.73 697.3 3696.08 705.85 3682.88 712.15C3669.98 718.15 3655.88 721.15 3640.58 721.15C3621.08 721.15 3603.83 717.1 3588.83 709C3573.83 700.6 3561.98 688.45 3553.28 672.55C3544.88 656.35 3540.68 637.15 3540.68 614.95V468.7H3603.68V605.95C3603.68 625.75 3608.63 641.05 3618.53 651.85C3628.43 662.35 3641.93 667.6 3659.03 667.6C3676.43 667.6 3690.08 662.35 3699.98 651.85C3709.88 641.05 3714.83 625.75 3714.83 605.95V468.7H3778.28ZM3903.43 505.15C3911.53 493.15 3922.63 483.4 3936.73 475.9C3951.13 468.4 3967.48 464.65 3985.78 464.65C4007.08 464.65 4026.28 469.9 4043.38 480.4C4060.78 490.9 4074.43 505.9 4084.33 525.4C4094.53 544.6 4099.63 566.95 4099.63 592.45C4099.63 617.95 4094.53 640.6 4084.33 660.4C4074.43 679.9 4060.78 695.05 4043.38 705.85C4026.28 716.65 4007.08 722.05 3985.78 722.05C3967.18 722.05 3950.83 718.45 3936.73 711.25C3922.93 703.75 3911.83 694.15 3903.43 682.45V718H3840.43V385H3903.43V505.15ZM4035.28 592.45C4035.28 577.45 4032.13 564.55 4025.83 553.75C4019.83 542.65 4011.73 534.25 4001.53 528.55C3991.63 522.85 3980.83 520 3969.13 520C3957.73 520 3946.93 523 3936.73 529C3926.83 534.7 3918.73 543.1 3912.43 554.2C3906.43 565.3 3903.43 578.35 3903.43 593.35C3903.43 608.35 3906.43 621.4 3912.43 632.5C3918.73 643.6 3926.83 652.15 3936.73 658.15C3946.93 663.85 3957.73 666.7 3969.13 666.7C3980.83 666.7 3991.63 663.7 4001.53 657.7C4011.73 651.7 4019.83 643.15 4025.83 632.05C4032.13 620.95 4035.28 607.75 4035.28 592.45Z" fill="#FF0000"/>
<path d="M2669.35 906.05C2672.05 902.05 2675.75 898.8 2680.45 896.3C2685.25 893.8 2690.7 892.55 2696.8 892.55C2703.9 892.55 2710.3 894.3 2716 897.8C2721.8 901.3 2726.35 906.3 2729.65 912.8C2733.05 919.2 2734.75 926.65 2734.75 935.15C2734.75 943.65 2733.05 951.2 2729.65 957.8C2726.35 964.3 2721.8 969.35 2716 972.95C2710.3 976.55 2703.9 978.35 2696.8 978.35C2690.6 978.35 2685.15 977.15 2680.45 974.75C2675.85 972.25 2672.15 969.05 2669.35 965.15V977H2648.35V866H2669.35V906.05ZM2713.3 935.15C2713.3 930.15 2712.25 925.85 2710.15 922.25C2708.15 918.55 2705.45 915.75 2702.05 913.85C2698.75 911.95 2695.15 911 2691.25 911C2687.45 911 2683.85 912 2680.45 914C2677.15 915.9 2674.45 918.7 2672.35 922.4C2670.35 926.1 2669.35 930.45 2669.35 935.45C2669.35 940.45 2670.35 944.8 2672.35 948.5C2674.45 952.2 2677.15 955.05 2680.45 957.05C2683.85 958.95 2687.45 959.9 2691.25 959.9C2695.15 959.9 2698.75 958.9 2702.05 956.9C2705.45 954.9 2708.15 952.05 2710.15 948.35C2712.25 944.65 2713.3 940.25 2713.3 935.15ZM2829.51 893.9L2778.06 1016.3H2755.71L2773.71 974.9L2740.41 893.9H2763.96L2785.41 951.95L2807.16 893.9H2829.51ZM2947.82 872.3V889.25H2919.92V977H2898.92V889.25H2871.02V872.3H2947.82ZM3040.39 933.65C3040.39 936.65 3040.19 939.35 3039.79 941.75H2979.04C2979.54 947.75 2981.64 952.45 2985.34 955.85C2989.04 959.25 2993.59 960.95 2998.99 960.95C3006.79 960.95 3012.34 957.6 3015.64 950.9H3038.29C3035.89 958.9 3031.29 965.5 3024.49 970.7C3017.69 975.8 3009.34 978.35 2999.44 978.35C2991.44 978.35 2984.24 976.6 2977.84 973.1C2971.54 969.5 2966.59 964.45 2962.99 957.95C2959.49 951.45 2957.74 943.95 2957.74 935.45C2957.74 926.85 2959.49 919.3 2962.99 912.8C2966.49 906.3 2971.39 901.3 2977.69 897.8C2983.99 894.3 2991.24 892.55 2999.44 892.55C3007.34 892.55 3014.39 894.25 3020.59 897.65C3026.89 901.05 3031.74 905.9 3035.14 912.2C3038.64 918.4 3040.39 925.55 3040.39 933.65ZM3018.64 927.65C3018.54 922.25 3016.59 917.95 3012.79 914.75C3008.99 911.45 3004.34 909.8 2998.84 909.8C2993.64 909.8 2989.24 911.4 2985.64 914.6C2982.14 917.7 2979.99 922.05 2979.19 927.65H3018.64ZM3076.72 866V977H3055.72V866H3076.72ZM3146.67 977L3118.47 941.6V977H3097.47V866H3118.47V929.15L3146.37 893.9H3173.67L3137.07 935.6L3173.97 977H3146.67ZM3221.97 978.35C3213.97 978.35 3206.77 976.6 3200.37 973.1C3193.97 969.5 3188.92 964.45 3185.22 957.95C3181.62 951.45 3179.82 943.95 3179.82 935.45C3179.82 926.95 3181.67 919.45 3185.37 912.95C3189.17 906.45 3194.32 901.45 3200.82 897.95C3207.32 894.35 3214.57 892.55 3222.57 892.55C3230.57 892.55 3237.82 894.35 3244.32 897.95C3250.82 901.45 3255.92 906.45 3259.62 912.95C3263.42 919.45 3265.32 926.95 3265.32 935.45C3265.32 943.95 3263.37 951.45 3259.47 957.95C3255.67 964.45 3250.47 969.5 3243.87 973.1C3237.37 976.6 3230.07 978.35 3221.97 978.35ZM3221.97 960.05C3225.77 960.05 3229.32 959.15 3232.62 957.35C3236.02 955.45 3238.72 952.65 3240.72 948.95C3242.72 945.25 3243.72 940.75 3243.72 935.45C3243.72 927.55 3241.62 921.5 3237.42 917.3C3233.32 913 3228.27 910.85 3222.27 910.85C3216.27 910.85 3211.22 913 3207.12 917.3C3203.12 921.5 3201.12 927.55 3201.12 935.45C3201.12 943.35 3203.07 949.45 3206.97 953.75C3210.97 957.95 3215.97 960.05 3221.97 960.05ZM3383.92 892.7C3394.12 892.7 3402.32 895.85 3408.52 902.15C3414.82 908.35 3417.97 917.05 3417.97 928.25V977H3396.97V931.1C3396.97 924.6 3395.32 919.65 3392.02 916.25C3388.72 912.75 3384.22 911 3378.52 911C3372.82 911 3368.27 912.75 3364.87 916.25C3361.57 919.65 3359.92 924.6 3359.92 931.1V977H3338.92V931.1C3338.92 924.6 3337.27 919.65 3333.97 916.25C3330.67 912.75 3326.17 911 3320.47 911C3314.67 911 3310.07 912.75 3306.67 916.25C3303.37 919.65 3301.72 924.6 3301.72 931.1V977H3280.72V893.9H3301.72V903.95C3304.42 900.45 3307.87 897.7 3312.07 895.7C3316.37 893.7 3321.07 892.7 3326.17 892.7C3332.67 892.7 3338.47 894.1 3343.57 896.9C3348.67 899.6 3352.62 903.5 3355.42 908.6C3358.12 903.8 3362.02 899.95 3367.12 897.05C3372.32 894.15 3377.92 892.7 3383.92 892.7Z" fill="black"/>
</svg>
